<?xml version="1.0" encoding="UTF-8" standalone="no"?> <svg xmlns="http://www.w3.org/2000/svg" version="1.0" width="369.000000pt" height="80.000000pt" viewBox="0 0 369.000000 80.000000" preserveAspectRatio="xMidYMid meet"><g transform="translate(0.000000,80.000000) scale(0.100000,-0.100000)" fill="#000000" stroke="none"><path d="M2128 690 l-3 -105 -368 -5 -368 -5 0 -285 0 -285 128 0 128 0 1 123 c1 67 3 125 6 127 2 2 62 -54 133 -125 l130 -130 237 0 238 0 0 130 c0 72 4 130 8 130 4 0 66 -58 137 -130 l128 -130 184 0 183 0 0 215 0 215 75 0 c41 0 75 -3 75 -7 0 -4 -33 -40 -72 -80 l-72 -73 129 0 130 0 155 155 155 155 -422 0 -423 0 3 -205 c1 -113 0 -205 -3 -205 -3 0 -146 141 -317 312 l-312 313 -3 -105z m2 -425 c0 -113 -3 -205 -7 -205 -12 0 -203 193 -203 205 0 11 191 205 202 205 5 0 8 -92 8 -205z m-330 157 c0 -12 -150 -158 -151 -147 -1 10 0 132 1 148 0 9 150 9 150 -1z"></path><path d="M0 400 l0 -180 185 0 185 0 0 -30 0 -30 -185 0 -185 0 0 -80 0 -80 318 2 317 3 3 182 2 183 -187 2 -188 3 0 25 0 25 212 3 213 2 0 -215 0 -215 320 0 320 0 0 105 0 106 -132 -3 c-125 -3 -133 -4 -133 -23 0 -18 -7 -20 -55 -20 l-55 0 0 130 0 130 55 0 c51 0 55 -2 53 -22 -3 -23 -2 -23 132 -23 l135 0 0 100 0 100 -665 0 -665 0 0 -180z"></path><path d="M3060 120 l0 -120 130 0 131 0 -3 118 -3 117 -52 3 -53 3 0 -85 c0 -85 0 -86 -25 -86 -25 0 -25 1 -25 85 l0 85 -50 0 -50 0 0 -120z"></path><path d="M3347 233 c-4 -3 -7 -58 -7 -120 l0 -114 53 3 52 3 2 83 c1 46 4 86 6 89 3 2 18 3 34 1 l28 -3 -27 -24 c-16 -14 -28 -28 -28 -33 0 -4 22 -8 48 -8 45 0 51 3 112 65 l64 65 -165 0 c-91 0 -169 -3 -172 -7z"></path></g></svg> 